<?xml version="1.0" encoding="UTF-8"?><svg id="Layer_1" xmlns="http://www.w3.org/2000/svg" viewBox="0 0 36.9 36.9"><defs><style>.cls-1{fill:#fff;}.cls-2{fill:#ed1c24;stroke:#5e8194;stroke-miterlimit:10;}</style></defs><rect class="cls-2" x=".5" y=".5" width="35.9" height="35.9" rx="17.95" ry="17.95"/><path class="cls-1" d="M16.94,11.35s3.54-2.38,6.2-.54,2.93,2.72,2.32,5.11-1.16,2.93-1.5,4.22-.54,5.58-.95,6.2-1.57,1.91-1.43-.82.14-7.56-5.04-8.11c1.5,1.7,3.27,3.54,3,6.95s0,5.58,1.6,5.79,3.98-1.77,4.26-4.56-.27-2.93.75-5.18,3.2-7.15.61-9.67-3.68-2.66-5.24-2.38-2.79,1.77-4.56,3Z"/><path class="cls-1" d="M14.55,8.89s-5.24.68-5.58,5.93,2.38,3.41,1.23,10.15,1.5,6.25,2.72,5.2,5.99-3.84,4.5-9.02c-.48-1.77-1.7,1.98-2.11,2.93s-2.11,4.63-2.93,3.34,1.21-4.9.95-6.27-2.38-3.4-2.38-4.8.2-3.44,3.61-7.46Z"/></svg>