<?xml version="1.0" encoding="UTF-8"?><svg id="Layer_1" xmlns="http://www.w3.org/2000/svg" viewBox="0 0 220.7 41.72"><defs><style>.cls-1,.cls-2{fill:#ed1c24;}.cls-3{fill:#fff;}.cls-2{stroke:#5e8194;stroke-miterlimit:10;}.cls-4{fill:#5e8194;}</style></defs><rect class="cls-2" x="107.79" y=".5" width="35.9" height="35.9" rx="17.95" ry="17.95"/><path class="cls-1" d="M14.87,10.42l.4,5.91h-.4c-.53-1.77-1.29-3.04-2.27-3.82s-2.16-1.17-3.54-1.17c-1.15,0-2.2.29-3.13.88-.93.59-1.67,1.52-2.2,2.8-.53,1.28-.8,2.88-.8,4.79,0,1.57.25,2.94.76,4.09.5,1.15,1.26,2.04,2.28,2.66,1.01.62,2.17.92,3.47.92,1.13,0,2.12-.24,2.99-.72.86-.48,1.81-1.44,2.85-2.88l.4.26c-.87,1.55-1.89,2.68-3.05,3.4-1.16.72-2.54,1.08-4.14,1.08-2.88,0-5.11-1.07-6.7-3.21-1.18-1.59-1.77-3.46-1.77-5.62,0-1.74.39-3.33,1.17-4.79s1.85-2.58,3.21-3.38,2.85-1.2,4.47-1.2c1.26,0,2.5.31,3.72.92.36.19.62.28.77.28.23,0,.43-.08.6-.24.22-.23.38-.55.47-.96h.45Z"/><path class="cls-1" d="M31.78,10.81l.19,4.08h-.49c-.09-.72-.22-1.23-.38-1.54-.27-.5-.62-.86-1.06-1.1-.44-.23-1.02-.35-1.74-.35h-2.45v13.29c0,1.07.12,1.74.35,2,.32.36.83.54,1.5.54h.6v.47h-7.38v-.47h.62c.74,0,1.26-.22,1.56-.67.19-.27.28-.9.28-1.87v-13.29h-2.09c-.81,0-1.39.06-1.73.18-.44.16-.83.47-1.14.94-.32.46-.5,1.09-.56,1.87h-.49l.21-4.08h14.2Z"/><path class="cls-1" d="M41.89,10.42c2.26,0,4.21.86,5.87,2.57,1.65,1.71,2.48,3.85,2.48,6.42s-.83,4.84-2.5,6.58c-1.67,1.74-3.69,2.62-6.06,2.62s-4.41-.85-6.04-2.55c-1.63-1.7-2.44-3.9-2.44-6.61s.94-5.02,2.82-6.76c1.63-1.51,3.59-2.27,5.86-2.27ZM41.64,11.35c-1.56,0-2.81.58-3.75,1.73-1.17,1.44-1.76,3.54-1.76,6.31s.61,5.02,1.82,6.56c.93,1.16,2.16,1.74,3.69,1.74,1.63,0,2.98-.64,4.05-1.91,1.06-1.27,1.6-3.28,1.6-6.03,0-2.98-.59-5.2-1.76-6.66-.94-1.16-2.24-1.74-3.9-1.74Z"/><path class="cls-1" d="M62,28.21l-6.72-14.64v11.62c0,1.07.12,1.74.35,2,.32.36.82.54,1.5.54h.62v.47h-6.06v-.47h.62c.74,0,1.26-.22,1.57-.67.19-.27.28-.9.28-1.87v-11.37c0-.77-.09-1.33-.26-1.67-.12-.25-.34-.46-.66-.62-.32-.17-.84-.25-1.55-.25v-.48h4.93l6.31,13.61,6.21-13.61h4.93v.48h-.6c-.74,0-1.27.22-1.58.67-.19.27-.28.9-.28,1.87v11.37c0,1.07.12,1.74.36,2,.32.36.82.54,1.5.54h.6v.47h-7.39v-.47h.62c.74,0,1.27-.22,1.56-.67.19-.27.28-.9.28-1.87v-11.62l-6.71,14.64h-.42Z"/><path class="cls-1" d="M86.64,22.39h-6.74l-1.18,2.75c-.29.68-.44,1.18-.44,1.51,0,.27.13.5.38.7.25.2.8.33,1.64.39v.47h-5.48v-.47c.73-.13,1.2-.29,1.41-.5.44-.41.92-1.24,1.45-2.5l6.12-14.32h.45l6.06,14.47c.49,1.16.93,1.92,1.33,2.26.4.35.95.54,1.66.58v.47h-6.86v-.47c.69-.03,1.16-.15,1.4-.35.24-.2.37-.44.37-.72,0-.38-.17-.97-.51-1.78l-1.05-2.5ZM86.28,21.44l-2.95-7.03-3.03,7.03h5.98Z"/><path class="cls-1" d="M106.48,10.81l.19,4.08h-.49c-.09-.72-.22-1.23-.38-1.54-.27-.5-.62-.86-1.06-1.1-.44-.23-1.02-.35-1.74-.35h-2.45v13.29c0,1.07.12,1.74.35,2,.32.36.83.54,1.5.54h.6v.47h-7.38v-.47h.62c.74,0,1.26-.22,1.56-.67.19-.27.28-.9.28-1.87v-13.29h-2.09c-.81,0-1.39.06-1.73.18-.44.16-.83.47-1.14.94-.32.46-.5,1.09-.56,1.87h-.49l.21-4.08h14.2Z"/><path class="cls-1" d="M155.26,10.57h-5.39v4.88c0,4.92-.42,8.11-1.27,9.58-.85,1.47-2.01,2.2-3.5,2.2-.63,0-1.12-.16-1.46-.47-.34-.31-.51-.67-.51-1.08,0-.32.11-.59.33-.82.22-.23.49-.35.81-.35.27,0,.57.13.91.39.38.28.73.42,1.04.42.74,0,1.35-.62,1.82-1.85.47-1.24.71-3.58.71-7.02v-3.64c0-1.15-.15-1.87-.45-2.18-.3-.31-.99-.48-2.07-.51v-.48h14v.48c-1.08.03-1.77.21-2.07.51-.3.31-.45,1.03-.45,2.18v11.06c0,1.15.15,1.87.45,2.18.3.31.99.48,2.07.51v.47h-7.48v-.47c1.08-.03,1.77-.21,2.07-.51.3-.31.45-1.03.45-2.18v-13.28Z"/><path class="cls-1" d="M170.32,9.23c2.26,0,4.21.86,5.87,2.57,1.65,1.71,2.48,3.85,2.48,6.42s-.83,4.84-2.5,6.58c-1.67,1.74-3.69,2.62-6.06,2.62s-4.41-.85-6.04-2.55c-1.63-1.7-2.44-3.9-2.44-6.61s.94-5.02,2.82-6.76c1.63-1.51,3.59-2.27,5.86-2.27ZM170.08,10.16c-1.56,0-2.81.58-3.75,1.73-1.17,1.44-1.76,3.54-1.76,6.31s.61,5.02,1.82,6.56c.93,1.16,2.16,1.74,3.7,1.74,1.63,0,2.98-.64,4.05-1.91,1.06-1.27,1.6-3.28,1.6-6.03,0-2.98-.59-5.2-1.76-6.66-.94-1.16-2.24-1.74-3.9-1.74Z"/><path class="cls-1" d="M194.12,9.62l.06,4.07h-.5c-.03-.82-.21-1.48-.53-1.98s-.7-.81-1.16-.94c-.46-.13-1.12-.2-1.98-.2h-4.88v13.28c0,1.15.15,1.87.44,2.18.29.31.98.48,2.05.51v.47h-7.47v-.47c1.08-.03,1.77-.21,2.07-.51.3-.31.45-1.03.45-2.18v-11.06c0-1.15-.15-1.87-.45-2.18-.3-.31-.99-.48-2.07-.51v-.48h13.96Z"/><path class="cls-1" d="M202.98,26.55v.47h-7.45v-.47h.62c.72,0,1.24-.21,1.57-.63.21-.27.31-.93.31-1.98v-11.24c0-.88-.06-1.46-.17-1.74-.09-.21-.26-.4-.53-.55-.38-.21-.77-.31-1.18-.31h-.62v-.48h7.45v.48h-.63c-.71,0-1.23.21-1.55.63-.21.27-.32.93-.32,1.98v11.24c0,.88.06,1.46.17,1.75.08.21.26.4.54.55.37.21.76.31,1.17.31h.63Z"/><path class="cls-1" d="M203.39,26.55c.95-.1,1.72-.34,2.31-.72.59-.38,1.3-1.14,2.12-2.28l3.59-4.99c-1.46-.32-2.54-.88-3.24-1.67-.7-.79-1.05-1.71-1.05-2.78,0-1,.31-1.86.92-2.58.61-.72,1.36-1.22,2.23-1.49.88-.27,2.24-.4,4.09-.4h6.34v.48h-.65c-.66,0-1.15.19-1.49.56-.24.27-.36.94-.36,2.04v11.24c0,.99.09,1.62.27,1.89.32.48.84.72,1.58.72h.65v.47h-7.45v-.47h.68c.65,0,1.14-.19,1.46-.56.24-.27.36-.94.36-2.04v-5.05c-.14,0-.27.02-.4.02-.13,0-.25,0-.36,0-.27,0-.63,0-1.06-.03l-5.89,8.13h-4.64v-.47ZM215.75,10.84c-.85-.16-1.52-.24-2.01-.24-1.12,0-2.02.34-2.7,1.02-.68.68-1.02,1.56-1.02,2.65s.42,2.03,1.26,2.75c.84.72,2.09,1.08,3.75,1.08.08,0,.17,0,.29,0,.12,0,.26,0,.42,0v-7.24Z"/><path class="cls-3" d="M124.23,11.35s3.54-2.38,6.2-.54,2.93,2.72,2.32,5.11-1.16,2.93-1.5,4.22-.54,5.58-.95,6.2-1.57,1.91-1.43-.82.14-7.56-5.04-8.11c1.5,1.7,3.27,3.54,3,6.95s0,5.58,1.6,5.79,3.98-1.77,4.26-4.56-.27-2.93.75-5.18,3.2-7.15.61-9.67-3.68-2.66-5.24-2.38-2.79,1.77-4.56,3Z"/><path class="cls-3" d="M121.83,8.89s-5.24.68-5.58,5.93,2.38,3.41,1.23,10.15,1.5,6.25,2.72,5.2,5.99-3.84,4.5-9.02c-.48-1.77-1.7,1.98-2.11,2.93s-2.11,4.63-2.93,3.34,1.21-4.9.95-6.27-2.38-3.4-2.38-4.8.2-3.44,3.61-7.46Z"/><polygon class="cls-4" points="219.96 37.56 219.69 41.72 154.13 39.18 138.97 30.58 140.59 28.54 155.16 37.04 219.96 37.56"/></svg>